<?xml version="1.0" encoding="UTF-8"?>
<svg xmlns="http://www.w3.org/2000/svg" version="1.1" viewBox="0 0 2170 1000">
  <defs>
    <style>
      .cls-1 {
        fill: #0e11fe;
      }
    </style>
  </defs>
  <!-- Generator: Adobe Illustrator 28.7.2, SVG Export Plug-In . SVG Version: 1.2.0 Build 154)  -->
  <g>
    <g id="Camada_1">
      <g id="Camada_1-2" data-name="Camada_1">
        <path class="cls-1" d="M412.4,165.2c24.7-31.7,42.3-74,37-116.3-37,1.8-81.1,24.7-107.5,54.6-22.9,26.4-44.1,70.5-38.8,111,42.3,5.3,82.8-17.6,109.3-49.3M449.4,225.1c-59.9-3.5-111,33.5-139.2,33.5s-72.3-31.7-119.8-31.7c-61.7,1.8-118.1,35.2-149.8,91.6-63.4,111-17.6,274.9,45.8,364.8,30,44.1,67,93.4,114.6,91.6,45.8-1.8,63.4-30,118.1-30s70.5,30,119.8,28.2,81.1-44.1,111-89.9c35.2-51.1,49.3-100.5,49.3-102.2-1.8-1.8-96.9-37-96.9-146.3-1.8-91.6,74-135.7,77.5-137.5-40.5-63.4-107.5-70.5-130.4-72.3"/>
        <path d="M967.5,99.9c130.4,0,220.3,89.9,220.3,218.5s-91.6,220.3-223.8,220.3h-142.8v227.3h-104V99.9h250.3,0ZM821.2,452.4h118.1c89.9,0,141-49.3,141-132.2s-51.1-132.2-141-132.2h-119.8v264.4h1.8-.1ZM1214.2,630.4c0-84.6,65.2-137.5,181.5-144.5l133.9-7v-37c0-54.6-37-86.4-96.9-86.4s-93.4,28.2-102.2,70.5h-95.2c5.3-88.1,81.1-153.3,200.9-153.3s193.9,61.7,193.9,160.4v334.8h-95.2v-79.3h-1.8c-28.2,54.6-89.9,88.1-153.3,88.1-98.7,0-165.7-59.9-165.7-146.3h0ZM1529.7,586.4v-38.8l-119.8,7c-59.9,3.5-93.4,30-93.4,72.3s35.2,70.5,88.1,70.5,125.1-47.6,125.1-111h0ZM1718.3,947.6v-81.1c7,1.8,24.7,1.8,31.7,1.8,45.8,0,70.5-19.4,86.4-68.7,0-1.8,8.8-30,8.8-30l-176.2-486.4h107.5l123.4,396.5h1.8l123.4-396.5h105.7l-181.5,512.8c-42.3,118.1-89.9,155.1-190.3,155.1-7-1.8-31.7-1.8-40.5-3.5h-.2Z"/>
      </g>
    </g>
  </g>
</svg>