<?xml version="1.0" encoding="UTF-8"?>
<svg xmlns="http://www.w3.org/2000/svg" version="1.1" xmlns:cc="http://creativecommons.org/ns#" xmlns:dc="http://purl.org/dc/elements/1.1/" xmlns:inkscape="http://www.inkscape.org/namespaces/inkscape" xmlns:rdf="http://www.w3.org/1999/02/22-rdf-syntax-ns#" xmlns:sodipodi="http://sodipodi.sourceforge.net/DTD/sodipodi-0.dtd" xmlns:svg="http://www.w3.org/2000/svg" viewBox="0 0 2170 1640">
  <defs>
    <style>
      .cls-1 {
        fill: #0311fe;
      }
    </style>
  </defs>
  <!-- Generator: Adobe Illustrator 28.7.2, SVG Export Plug-In . SVG Version: 1.2.0 Build 154)  -->
  <g>
    <g id="Camada_1">
      <sodipodi:namedview id="base" bordercolor="#666666" borderopacity="1.0" inkscape:current-layer="layer1" inkscape:cx="606.5216" inkscape:cy="564.07865" inkscape:document-units="mm" inkscape:pageopacity="0.0" inkscape:pageshadow="2" inkscape:window-height="837" inkscape:window-maximized="1" inkscape:window-width="1600" inkscape:window-x="-8" inkscape:window-y="-8" inkscape:zoom="0.49497475" pagecolor="#ffffff" showgrid="false"/>
      <g>
        <path d="M976,1426.4c-50.7.8-91.1,42.5-90.4,93.2.8,50.6,42.3,91,92.9,90.4,26.1.9,51.7-7.9,71.8-24.6l-18.4-28.3c-14.5,11.6-32.5,18.1-51,18.4-26.2,2.3-49.5-16.8-52.5-43h130.2c.5-4.6.5-9.2.5-14.3h.1c0-55.1-34.1-91.8-83.2-91.8ZM928.6,1502.8c1.5-24.2,21.8-42.9,46.1-42.4,24-.5,43.9,18.5,44.4,42.6l-90.5-.2Z"/>
        <path d="M1219.8,1475.3s0,0,0,0h0s0,0,0,0Z"/>
        <path d="M1179.4,1500.7l-18.4-2.6c-16.5-2.2-29.7-4.4-29.7-17.3s12.5-20.6,33.4-20.6c19.4.3,38.2,5.4,55,15.1l17.1-30.8c-21.5-12.9-46.3-19.2-71.4-18.4-44.8,0-73.4,27.5-73.4,56.2s21.3,46.3,60.6,51.8l18.4,2.6c20.9,3,30.8,4.8,30.8,18.4s-13.9,21.3-40,21.3c-21,.6-41.6-5.9-58.4-18.4l-18.4,29.7c22.2,15.5,48.7,23.5,75.8,22.8,50.5,0,79.9-26.5,79.9-57.3s-23.1-47-61.3-52.5Z"/>
        <path d="M851.7,1430.6h-38.6v21.3c-13.1-17-33.6-26.5-55.1-25.7-50.7,0-91.8,41.1-91.8,91.8s41.1,91.8,91.8,91.8c21.4.8,41.9-8.8,55.1-25.7v21.3h38.2l.4-87.2h0v-87.6ZM815.7,1524.5c-1.6,27.9-24.7,49.8-52.7,49.9-29,.7-53-22.3-53.7-51.3,0-1.6,0-3.3,0-4.9h.4c1.7-29.3,26.8-51.6,56.1-49.8,29.3,1.7,51.6,26.8,49.8,56.1Z"/>
        <path d="M636.9,1495.6c2.5-35.9-24.6-67-60.5-69.5-2.8-.2-5.6-.2-8.3,0-24.7-1.6-48.4,10.3-61.7,31.2-12.2-20.2-34.4-32.2-58-31.2-20.5-1-40.1,8.9-51.4,26.1v-21.7h-38.2v175.3h38.6v-97.1c-3.2-22.4,12.4-43.1,34.8-46.3,2.7-.4,5.5-.5,8.2-.3,25.3,0,38.2,16.5,38.2,46.3v97.5h38.6v-97.1c-3-22.6,13-43.4,35.6-46.3,2.4-.3,4.9-.4,7.4-.3,26.1,0,38.6,16.5,38.6,46.3v97.5h38.4l-.3-.2v-110.2Z"/>
        <path d="M1366.5,1573.9c-19.1,0-25.3-11-25.3-29.4v-79.1h62.2v-34.9h-62.2v-53.2h-38.6v53.2h-35.6v34.9h35.6v79.9c0,40.8,15.8,65,61,65s33.4-4.7,47.7-13.6l-11-32.7c-10.3,6.1-21.9,9.5-33.8,9.9Z"/>
        <path d="M1734.2,1452.9c-8.6-8.4-18.7-15-29.9-19.5-11.7-4.7-24.1-7-36.7-7h0c0,0-.4-.5-.4-.5-13.1,0-26.1,2.5-38.2,7.5-11.1,4.5-21.2,11.1-29.7,19.5-8.4,8.3-15,18.3-19.6,29.2-9.6,23.5-9.6,49.9,0,73.4,4.5,10.9,11.2,20.9,19.6,29.2,8.5,8.4,18.6,15,29.7,19.5,24.2,9.4,51.1,9.4,75.3,0,11.1-4.5,21.3-11.1,29.9-19.5,8.5-8.3,15.2-18.2,19.8-29.2,9.6-23.5,9.6-49.9,0-73.4-4.6-11-11.3-20.9-19.8-29.2ZM1719.3,1542.7c-2.6,6.9-6.5,13.1-11.6,18.4-5.3,5.1-11.5,9.1-18.4,11.6-14,5.5-29.5,5.5-43.5,0-6.5-2.7-12.4-6.6-17.4-11.6-5.1-5.3-9-11.6-11.6-18.4-5.6-14.6-5.6-30.8,0-45.5,2.6-6.9,6.5-13.1,11.6-18.4,4.9-5,10.9-9,17.4-11.6,6.9-2.7,14.3-4.1,21.8-4h0l-.4-1.1c7.6.2,15.1,1.9,22,5.1,6.9,2.6,13.2,6.5,18.4,11.6,5.1,5.3,9,11.6,11.6,18.4,5.6,14.6,5.6,30.8,0,45.5Z"/>
        <path d="M1812.1,1585.3c-1.7-1.6-3.6-2.8-5.7-3.7-2.2-.9-4.6-1.3-7-1.3h0c0,0-.9,0-.9,0-2.1.1-4.2.5-6.1,1.3-2.1.9-4,2.1-5.7,3.7-1.7,1.6-3,3.4-3.9,5.5-1.9,4.4-1.9,9.3,0,13.6,3,6.4,9.4,10.6,16.5,10.6s4.8-.5,7-1.5c2.1-.9,4-2.1,5.7-3.7,1.7-1.6,3-3.4,3.9-5.5,1.9-4.3,1.9-9.3,0-13.6-1-2-2.3-3.9-3.9-5.5ZM1808.9,1607.3c-1.2,1.2-2.6,2.2-4.2,2.9-1.7.7-3.5,1.1-5.3,1.1h0v-.7c-3.6,0-7.1-1.4-9.7-4-4.8-5.2-4.8-13.2,0-18.4,1.3-1.2,2.8-2.2,4.4-2.9,1.7-.7,3.5-1.1,5.3-1.1s3.6.4,5.3,1.1c1.6.7,3,1.6,4.2,2.8,5.3,5.3,5.3,13.9,0,19.2Z"/>
        <path d="M1805.7,1598.2c.9-.9,1.3-2.1,1.3-3.3.1-1.5-.6-3-1.7-3.9-1.4-1.1-3.1-1.5-4.8-1.5h0c0,0-7.7-.4-7.7-.4v16.9h3.5v-6.1h1.7l5,6.1h4.2l-5.3-6.1c1.5-.2,2.8-.7,3.9-1.7ZM1800.5,1597h-4v-4.4h0c0,0,4,1,4,1,.7-.2,1.5-.2,2.2,0,.3.6.3,1.2,0,1.7.3.6.3,1.2,0,1.7-.7.2-1.5.2-2.2,0Z"/>
        <path d="M1535.5,1426.2l.7.7c-19-.6-36.8,9.3-46.3,25.7v-21.3h-37.8v175.3h38.2v-98.2c0-29,11.7-45.2,36.7-45.2,8.2,0,16.3,1.4,23.9,4.4l11.7-36.7c-8.7-3.1-17.9-4.8-27.2-4.8h.1Z"/>
        <path class="cls-1" d="M816.1,677h0c-.2-198.4,90.8-385.9,246.9-508.4C782.2-52.1,375.8-3.3,155.2,277.4c-220.7,280.7-171.9,687.2,108.8,907.8,234.5,184.3,564.5,184.3,799,0-156-122.5-247.1-309.9-246.9-508.2Z"/>
        <path class="cls-1" d="M2014.8,277.3C1794.1-3.4,1387.7-52.1,1107,168.6c40.4,31.8,77,68.3,108.8,108.8,220.7,280.7,171.9,687.2-108.8,907.8,114,89.6,254.7,138.3,399.6,138.3,357,0,646.5-289.4,646.5-646.5h0c0-145.1-48.7-285.8-138.3-399.7Z"/>
        <path class="cls-1" d="M1312.8,678.3c0-188.9-83-362.9-228.2-482.6-145.2,119.7-228.2,295-228.2,482.6h0c0,186.7,85.1,366.2,228.1,482.7,145.2-118.5,228.2-293.8,228.2-482.7Z"/>
        <polygon class="cls-1" points="2052 1066.1 2060.1 1066.1 2060.1 1084.6 2063.5 1084.6 2063.5 1066.1 2071 1066.1 2071 1062.2 2052 1062.2 2052 1066.1"/>
        <polygon class="cls-1" points="2087.9 1078.2 2081.2 1062.2 2076.1 1062.2 2076.1 1084.6 2080.3 1084.6 2080.3 1067.8 2086.5 1082.4 2090.8 1082.4 2097 1067.8 2097 1084.8 2100.4 1084.6 2100.4 1062.2 2094.6 1062.2 2087.9 1078.2"/>
      </g>
    </g>
  </g>
</svg>