<?xml version="1.0" encoding="UTF-8"?>
<svg xmlns="http://www.w3.org/2000/svg" version="1.1" xmlns:cc="http://creativecommons.org/ns#" xmlns:dc="http://purl.org/dc/elements/1.1/" xmlns:inkscape="http://www.inkscape.org/namespaces/inkscape" xmlns:rdf="http://www.w3.org/1999/02/22-rdf-syntax-ns#" xmlns:sodipodi="http://sodipodi.sourceforge.net/DTD/sodipodi-0.dtd" xmlns:svg="http://www.w3.org/2000/svg" viewBox="0 0 2284.1 1700">
  <defs>
    <style>
      .cls-1 {
        fill: #231f20;
      }

      .cls-2 {
        fill: #0e11fe;
      }
    </style>
  </defs>
  <!-- Generator: Adobe Illustrator 28.7.2, SVG Export Plug-In . SVG Version: 1.2.0 Build 154)  -->
  <g>
    <g id="Camada_1">
      <g>
        <path class="cls-2" d="M321,1198.9c234.5,184.3,564.5,184.3,799,0-156-122.5-247.1-309.9-246.9-508.2h0c-.2-198.4,90.8-385.9,246.9-508.4C839.2-38.4,432.8,10.4,212.2,291.1-8.5,571.8,40.3,978.3,321,1198.9Z"/>
        <path class="cls-2" d="M2071.8,291C1851.1,10.3,1444.7-38.4,1164,182.3c40.4,31.8,77,68.3,108.8,108.8,220.7,280.7,171.9,687.2-108.8,907.8,114,89.6,254.7,138.3,399.6,138.3,357,0,646.5-289.4,646.5-646.5h0c0-145.1-48.7-285.8-138.3-399.7Z"/>
        <path class="cls-2" d="M913.4,692h0c0,186.7,85.1,366.2,228.1,482.7,145.2-118.5,228.2-293.8,228.2-482.7s-83-362.9-228.2-482.6c-145.2,119.7-228.2,295-228.2,482.6Z"/>
        <polygon class="cls-1" points="2109 1079.8 2117.2 1079.8 2117.2 1098.3 2120.6 1098.3 2120.6 1079.8 2128.1 1079.8 2128.1 1075.9 2109 1075.9 2109 1079.8"/>
        <polygon class="cls-1" points="2147.9 1096.1 2154.1 1081.5 2154.1 1098.5 2157.5 1098.3 2157.5 1075.9 2151.7 1075.9 2145 1091.9 2138.3 1075.9 2133.2 1075.9 2133.2 1098.3 2137.3 1098.3 2137.3 1081.5 2143.6 1096.1 2147.9 1096.1"/>
        <path class="cls-1" d="M790,1540.9l-18.4-2.6c-16.6-2.2-29.9-5.5-29.9-17.3s12.5-20.7,33.6-20.7c19.4.2,38.5,5.4,55.3,15.1l17-31c-21.7-12.9-46.7-19.3-71.9-18.4-44.6,0-73.7,21.4-73.7,56.4s21.4,46.5,60.8,52l18.4,2.6c21,3,31,8.5,31,18.4s-14,21.4-40.2,21.4c-21.1.6-41.7-5.9-58.6-18.4l-18.4,29.9c22.3,15.6,49.1,23.6,76.3,22.9,50.9,0,80.4-24,80.4-57.5s-23.2-47.2-61.6-52.7Z"/>
        <path class="cls-1" d="M978.1,1615.4c-18.4,0-25.4-11.8-25.4-29.5v-80.4h62.7l-.4-35h-63.1v-53.5h-38.7v53.5h-35v35h35.8v81.1c0,40.9,15.9,65.3,61.2,65.3,16.9,0,33.6-4.7,47.9-13.6l-11.1-32.8c-10.3,6.1-22,9.6-33.9,10Z"/>
        <path class="cls-1" d="M658.3,1470.5h-38.3v21.4c-13.2-17-33.8-26.6-55.3-25.8-50.9,0-92.2,41.3-92.2,92.2s41.3,92.2,92.2,92.2c21.5.8,42.1-8.8,55.3-25.8v21.4h38.3v-87.4s0-88.1,0-88.1ZM622,1564.9c-1.7,28.1-24.8,50-52.9,50.1-29.2.6-53.4-22.6-53.9-51.9,0-1.5,0-3,.1-4.6h.4c1.7-29.4,26.9-51.8,56.3-50.1,29.4,1.7,51.8,26.9,50.1,56.3Z"/>
        <path class="cls-1" d="M381.1,1466.1c-2.8-.2-5.6-.2-8.4,0-24.8-1.6-48.6,10.4-61.9,31.3-12.2-20.3-34.6-32.4-58.3-31.3-20.6-1-40.3,8.9-51.6,26.2v-21.8h-38.3v176.3h38.7v-97c-3.1-22.6,12.7-43.4,35.3-46.5,2.6-.4,5.2-.5,7.8-.3,25.4,0,38.3,16.6,38.3,46.5v98.1h38.7v-97.7c-3-22.7,13-43.5,35.7-46.5,2.5-.3,4.9-.4,7.4-.3,26.2,0,38.7,16.6,38.7,46.5v98.1l38.7-.7v-110.6c2.5-36.2-24.8-67.5-60.9-70Z"/>
        <path class="cls-1" d="M2159,1621.1s0,0,.1,0c.1,0,.3,0,.4,0h-.6Z"/>
        <path class="cls-1" d="M1874.7,1466.1c-19-.6-36.9,9.3-46.5,25.8v-21.4h-38v176.3h38.4v-98.8c0-29.1,12.5-45.4,36.9-45.4,8.2-.1,16.3,1.4,24,4.4l11.8-36.9c-8.8-3.1-18-4.8-27.3-4.8l.7.7Z"/>
        <path class="cls-1" d="M1134.8,1466.4l-.6-.4c-50.9.7-91.6,42.6-90.9,93.5.7,50.9,42.6,91.6,93.5,90.9,26.5,1.4,52.6-7.2,73.2-24l-18.4-28.4c-14.6,11.7-32.6,18.2-51.3,18.4-26.4,2.3-49.7-16.9-52.7-43.1h130.9v-14.8c0-55.3-34.3-92.2-83.7-92.2ZM1086.6,1543.1c1.4-24.6,22.2-43.6,46.8-42.8h.7c24.1-.5,44.1,18.6,44.6,42.8,0,0,0,0,0,0h-92.2Z"/>
        <path class="cls-1" d="M2165.2,1639c.9-.9,1.3-2.1,1.3-3.3.1-1.5-.5-2.9-1.7-3.9-1.4-1-3.1-1.6-4.8-1.5l-7.7.2v16.2h3.5v-6.1h1.7l5,6.1h4.2l-5.3-6.1c1.4-.1,2.8-.7,3.9-1.7ZM2160.1,1637.9h-4.1v-4.4l4.1,1.1c.7-.2,1.5-.2,2.2,0,.3.5.3,1.1,0,1.7.3.5.3,1.1,0,1.7-.7.2-1.5.2-2.2,0Z"/>
        <path class="cls-1" d="M1701.4,1491.9c-13.2-17-33.8-26.6-55.3-25.8-50.9,0-92.2,41.3-92.2,92.2s41.3,92.2,92.2,92.2c21.5.8,42.1-8.8,55.3-25.8v21.4h38.3v-175.5h-38.3v21.4ZM1703.4,1564.5c-1.7,28.1-24.8,50-52.9,50.1-29.2.4-53.2-23-53.6-52.2,0-1.4,0-2.8.1-4.2,1.7-29.4,26.9-51.8,56.3-50.1,29.4,1.7,51.8,26.9,50.1,56.3Z"/>
        <path class="cls-1" d="M2058.1,1491.9c-13.2-17-33.8-26.6-55.3-25.8-50.9,0-92.2,41.3-92.2,92.2s41.3,92.2,92.2,92.2c21.5.8,42.1-8.8,55.3-25.8v21.4h36.9v-246.3h-36.9v92.2ZM2059.6,1564.9c-1.7,28.1-24.8,50-52.9,50.1-29.2.4-53.2-23-53.6-52.2,0-1.4,0-2.8.1-4.2,1.7-29.4,26.9-51.8,56.3-50.1,29.4,1.7,51.8,26.9,50.1,56.3Z"/>
        <path class="cls-1" d="M2171.7,1626.1c-1.7-1.6-3.6-2.8-5.7-3.7-2.2-.9-4.5-1.3-6.9-1.3-2.4,0-4.9.4-7.1,1.3-2.1.9-4.1,2.1-5.7,3.7-1.6,1.6-2.9,3.5-3.9,5.5-1.9,4.4-1.9,9.3,0,13.6,3,6.5,9.5,10.6,16.6,10.7,2.4,0,4.8-.5,7-1.5,2.1-.9,4.1-2.1,5.7-3.7,1.6-1.6,2.9-3.5,3.9-5.5,1.9-4.4,1.9-9.3,0-13.6-.9-2.1-2.3-3.9-3.9-5.5ZM2168.6,1648.2c-1.2,1.2-2.7,2.2-4.2,3-1.6.7-3.4,1.1-5.2,1.1-1.9,0-3.8-.3-5.5-1.1-1.7-.7-3.2-1.7-4.4-3-4.8-5.2-4.8-13.2,0-18.4,1.3-1.3,2.8-2.3,4.4-3,1.7-.7,3.5-1.1,5.3-1.1,1.8,0,3.7.4,5.3,1.1,1.6.7,3,1.7,4.2,3,4.8,5.2,4.8,13.2,0,18.4Z"/>
        <path class="cls-1" d="M1342,1466.1c-19-.6-36.9,9.3-46.5,25.8v-21.4h-38v176.3h38.3v-98.8c0-29.1,12.5-45.4,36.9-45.4,8.2-.1,16.3,1.4,24,4.4l11.8-36.9c-8.8-3.1-18-4.8-27.3-4.8l.7.7Z"/>
        <path class="cls-1" d="M1473.5,1501.5c16.7.2,32.8,5.7,46.1,15.9l18.4-31c-17.8-14.7-40.4-22.2-63.4-21-49.1-2.8-91.2,34.8-93.9,83.9-.2,2.8-.2,5.5,0,8.3v.7c-1.8,49.1,36.6,90.5,85.7,92.3,2.8.1,5.5,0,8.3,0,23,1.2,45.7-6.3,63.4-21l-18.4-31c-13.3,10.1-29.4,15.7-46.1,15.9-31.2-2.5-54.4-29.8-51.9-61,2.2-27.7,24.2-49.6,51.9-51.9Z"/>
      </g>
    </g>
  </g>
</svg>