<?xml version="1.0" encoding="UTF-8"?>
<svg xmlns="http://www.w3.org/2000/svg" version="1.1" viewBox="0 0 2170 800">
  <defs>
    <style>
      .cls-1 {
        fill: #0311fe;
      }

      .cls-2 {
        fill: none;
        stroke: #000;
        stroke-linecap: round;
        stroke-linejoin: round;
        stroke-width: 6.3px;
      }
    </style>
  </defs>
  <!-- Generator: Adobe Illustrator 28.7.2, SVG Export Plug-In . SVG Version: 1.2.0 Build 154)  -->
  <g>
    <g id="Camada_1">
      <g id="Camada_1-2" data-name="Camada_1">
        <g>
          <path class="cls-2" d="M897.8,730.8v-437.7c0-80.5,65.3-145.8,145.8-145.8h129.1c80.3.2,145.3,65.5,145.3,145.8v93.1c0,80.5-65.3,145.8-145.8,145.8h-182.6"/>
          <path class="cls-2" d="M1354.1,147.3h56.1c33.1,0,59.7,26.8,59.7,59.7v326.9"/>
          <path class="cls-1" d="M1458,96.8l-25.4-25.4c-6.3-6.3-6.3-16.4,0-22.7h0l25.4-25.4c6.3-6.3,16.4-6.3,23,0l25.4,25.4c6.3,6.3,6.3,16.4,0,22.7h0l-25.4,25.4c-6.3,6.3-16.4,6.3-22.7,0h0"/>
          <path class="cls-2" d="M1577.7,147.1h55.6c28.5,0,56.1,11.4,76.2,31.4l130.1,130.1c16.9,16.9,44,16.9,60.9,0h0l129.6-129.6c20.3-20.3,47.6-31.7,76.2-31.4h45.2"/>
          <path class="cls-2" d="M1577.7,531.3h55.6c28.5,0,56.1-11.4,76.2-31.4l130.1-130.1c16.9-16.9,44.2-16.9,60.9,0l129.6,129.6c20.3,20.3,47.6,31.4,76.2,31.4h45.2"/>
          <path class="cls-1" d="M566.3,614.2c-27.8,0-54.4-10.9-73.7-30.5l-106.6-106.6c-7.7-7.5-20.1-7.5-28,0l-107.1,107.1c-19.6,19.6-46.2,30.7-73.7,30.5h-20.8l135.2,135.2c42.3,42.1,110.5,42.1,152.8,0l135.4-135.4h-13.1l-.2-.2Z"/>
          <path class="cls-1" d="M176.7,237c27.8,0,54.4,10.9,73.7,30.5l107.1,107.1c7.7,7.7,20.3,7.7,28,0l106.6-106.6c19.6-19.6,46.2-30.7,73.7-30.7h12.8l-135.4-135.4c-42.1-42.1-110.5-42.3-152.8,0h0l-134.9,135.2h21Z"/>
          <path class="cls-1" d="M691.3,349.5l-82-82c-1.9.7-3.9,1.2-5.8,1.2h-37.2c-19.3,0-38,7.7-51.7,21.5l-106.6,106.6c-20.1,20.1-52.5,20.1-72.3,0l-107.1-107.1c-13.8-13.8-32.4-21.3-51.7-21.5h-45.7c-1.9,0-3.6-.5-5.6-1.2l-82.5,82.2c-42.1,42.3-42.1,110.5,0,152.8l82.2,82.2c1.7-.7,3.6-1,5.6-1.2h45.9c19.3,0,38-7.7,51.7-21.5l107.1-107.1c19.3-19.3,53.2-19.3,72.3,0l106.6,106.6c13.8,13.8,32.4,21.3,51.7,21.5h37.2c1.9,0,3.9.5,5.8,1.2l82-82c42.1-42.1,42.3-110.5,0-152.8h0"/>
          <path d="M1008.8,693.5c-6.8.2-13.5,1.2-20.1,3.1v26.6c5.1,1.7,10.4,2.7,15.5,2.7,13.3,0,19.8-4.6,19.8-16.2s-5.1-16-15.2-16M984.4,743.1v-52.7h3.6l.5,2.2c6.8-1.9,13.8-2.9,20.8-3.4,4.8-.2,9.7,1,13.8,3.9,4.6,3.6,6,9.7,6,16.4s-2.2,13.3-8.5,16.9c-4.8,2.4-10.2,3.6-15.5,3.4-5.3,0-10.9-1-16-2.4v15.5h-4.6l-.2.2Z"/>
          <path d="M1062.5,693.5c-13.3,0-19.3,4.1-19.3,16s5.8,16.4,19.3,16.4,19.3-4.1,19.3-16-5.8-16.7-19.3-16.7M1079.6,725.9c-4.6,3.1-10.4,4.1-17.2,4.1s-12.8-1-17.2-4.1c-4.8-3.4-7-8.9-7-16.2s1.9-12.8,7-16.2c4.4-3.1,10.4-4.1,17.2-4.1s12.8,1,17.2,4.1c5.1,3.6,6.8,9.2,6.8,16.2s-1.9,12.8-6.8,16.2"/>
          <path d="M1143,729.1l-15-31.9h-.2l-14.7,31.9h-4.1l-15.7-38.7h5.1l13.3,32.4h.2l14.3-32.4h4.1l14.7,32.4h.2l12.8-32.4h4.8l-16,38.7h-4.1.2Z"/>
          <path d="M1191.8,693.3c-12.3,0-16.7,5.6-17.4,13.5h34.8c-.5-8.7-4.8-13.5-17.4-13.5M1191.6,730.1c-7.5,0-12.3-1-16-4.4-4.6-3.9-6-9.7-6-16s1.9-12.8,7.3-16.4c4.6-2.9,9.7-4.1,15-3.9,5.3-.2,10.9,1,15.5,3.6,5.6,3.6,6.5,10.4,6.5,17.9h-39.7c0,8,2.7,15,17.7,15s13.3-1,19.8-2.2v4.1c-6.8,1.5-13.5,2.2-20.3,2.4"/>
          <path d="M1226.9,729.1v-38.7h3.6l.5,2.2c8.2-2.2,12.1-3.4,19.1-3.4h.5v4.4h-1c-6,0-9.7.7-18.1,3.1v32.4h-4.6Z"/>
          <path d="M1276.9,693.3c-12.3,0-16.7,5.6-17.4,13.5h34.8c-.5-8.7-4.8-13.5-17.4-13.5M1276.7,730.1c-7.5,0-12.3-1-16-4.4-4.6-3.9-6-9.7-6-16s2.2-12.8,7.3-16.4c4.6-2.9,9.7-4.1,15-3.9,5.3-.2,10.9,1,15.5,3.6,5.6,3.6,6.8,10.4,6.8,17.9h-39.7c0,8,2.7,15,17.7,15s13.3-1,20.1-2.2v4.1c-6.8,1.5-13.5,2.2-20.3,2.4"/>
          <path d="M1348.3,696.2c-5.1-1.7-10.4-2.7-15.5-2.7-13.3,0-19.8,4.6-19.8,16.2s5.3,16,15.2,16c6.8-.2,13.5-1.2,20.1-2.9v-26.8.2ZM1349.2,729.1l-.5-2.2c-6.8,1.9-13.8,2.9-20.8,3.4-4.8.5-9.7-1-13.8-3.9-4.6-3.6-6-9.7-6-16.4s2.2-13.3,8.5-16.9c4.8-2.4,10.2-3.6,15.5-3.6s10.9,1,16,2.4v-17.7h4.6v54.9h-3.6.2Z"/>
          <path d="M1418.9,693.5c-6.8.2-13.5,1.2-20.1,3.1v26.6c5.1,1.7,10.4,2.7,15.5,2.7,13.3,0,19.8-4.6,19.8-16.2s-5.1-16-15.2-16M1430.5,726.7c-4.8,2.4-10.2,3.6-15.5,3.4-5.8,0-11.6-1-17.2-2.9v1.9h-3.4v-54.9h4.6v18.4c6.8-1.7,13.5-2.9,20.3-3.1,4.8-.2,9.7,1,13.8,3.9,4.6,3.6,6,9.7,6,16.4s-2.2,13.3-8.5,16.9"/>
          <path d="M1445,743.8v-4.1c2.2,0,4.4.5,5.8.5,5.6,0,8.9-1.7,12.1-8l1.5-3.1-20.3-38.7h5.3l17.2,33.4h.2l16.4-33.4h5.1l-21.8,43.3c-3.9,8-8.2,10.4-16.2,10.4s-3.6,0-5.6-.5"/>
          <path d="M1550.6,707.1h-15v13.5h15c10.4,0,14.3-1.2,14.3-6.8s-5.3-6.8-14.3-6.8M1547.7,685.3h-12.3v13.8h12.3c10.2,0,14.3-1.2,14.3-7s-5.1-6.8-14.3-6.8M1571.2,725.5c-5.6,3.6-12.1,3.6-24.4,3.6h-23v-52.5h22.2c10.4,0,16.9,0,22.2,3.4,3.6,2.2,5.8,6.3,5.3,10.4,0,5.6-2.2,9.2-8.2,11.6h0c6.8,1.9,11.1,5.3,11.1,12.6.2,4.4-1.9,8.5-5.6,10.6"/>
          <path d="M1622.5,712.9c-4.6-.5-8.9-.7-13.8-.7-8,0-10.6,1.7-10.6,5.3s2.2,5.1,8.2,5.1,10.9-1,16.2-2.2v-7.5h0ZM1624.6,729.1v-2.2c-7,1.9-14.3,3.1-21.3,3.4-4.1.2-8.2-.7-11.6-2.9-5.1-4.4-5.8-11.8-1.5-16.9,1-1.2,2.2-2.2,3.6-2.9,4.1-1.9,9.4-2.2,14.5-2.2s9.4,0,14,.5v-.7c0-6-3.9-8-14.7-8s-9.4,0-14.3.7v-7.7c5.3-.5,11.6-.7,16.7-.7s13.8.5,18.1,3.6,5.3,7.5,5.3,13.3v22.7h-8.9Z"/>
          <path d="M1683.6,729.1v-21.3c0-7-3.6-9.7-9.9-9.7s-10.6,1-15.7,2.4v28.5h-10.9v-38.7h8.7l.5,2.4c6.8-1.9,13.5-3.1,20.6-3.6,4.8-.5,9.4,1,13.3,3.9,3.1,2.7,4.1,6.5,4.1,12.1v23.7h-10.6v.2Z"/>
          <path d="M1724.7,730.1c-5.1,0-10.4-.7-14.3-4.1-4.8-3.9-6-9.9-6-16.4s1.9-12.8,8-16.4c4.8-3.1,10.9-3.9,16.9-3.9s8.7.2,13.5.7v8.2c-3.9-.5-8.5-.7-12.3-.7-10.2,0-15,3.1-15,12.1s3.6,11.8,12.1,11.8,10.9-.7,16.2-1.9v8c-6.3,1.5-12.6,2.2-18.9,2.4"/>
          <path d="M1775.3,697.4c-10.2,0-14.7,3.1-14.7,12.1s4.6,12.6,14.7,12.6,14.5-3.1,14.5-11.8-4.4-12.6-14.5-12.6M1793.9,725.9c-4.8,3.1-10.9,4.1-18.6,4.1s-13.8-1-18.6-4.1c-5.3-3.6-7.3-9.4-7.3-16.2s1.9-12.8,7.3-16.4c4.6-3.1,10.9-4.1,18.6-4.1s13.8,1,18.6,4.1c5.3,3.6,7.3,9.4,7.3,16.2s-1.9,12.8-7.3,16.4"/>
          <path d="M1863.3,730.1c-6.5,0-13.5-1-18.9-5.3-6.3-5.3-8.2-13.3-8.2-21.8s2.4-16.9,10.6-22.2c6.3-4.1,14.3-5.1,22.2-5.1s11.8.5,18.4,1v9.4c-5.6-.5-12.6-.7-17.9-.7-15,0-21.3,5.6-21.3,17.7s5.8,17.9,16.9,17.9c7.7-.2,15.7-1.2,23.2-3.1v9.4c-8.2,1.9-16.7,2.9-25.1,3.4"/>
          <path d="M1920.1,696.2c-8.9,0-12.3,3.1-13.1,8.9h26.1c-.2-6.3-3.9-8.9-12.8-8.9M1918.4,730.1c-6.3,0-12.1-.7-16.4-4.4s-6.3-9.7-6.3-16.2,1.9-12.6,7.3-16.2c4.8-3.4,10.9-4.1,16.9-4.1s12.1.7,16.7,3.9c6.3,4.4,6.8,11.1,6.8,19.1h-36.8c0,5.8,3.4,9.7,14.3,9.7s13.8-.7,20.6-1.9v7.5c-7.7,1.5-15.5,2.4-23.2,2.4"/>
          <path d="M1991.7,729.1v-21.3c0-7-3.6-9.7-9.9-9.7s-10.6,1-15.7,2.4v28.5h-10.9v-38.7h8.7l.5,2.4c6.8-1.9,13.5-3.1,20.6-3.6,4.8-.5,9.4,1,13.3,3.9,3.1,2.7,4.1,6.5,4.1,12.1v23.7h-10.6v.2Z"/>
          <path d="M2033,730.1c-5.3,0-9.9-1.5-12.6-5.6-2.2-3.6-3.1-7.5-2.9-11.6v-14.5h-7.7v-8h7.7l1.2-11.6h9.4v11.6h15.2v8h-15.2v12.3c0,2.4,0,5.1,1,7.3,1.2,2.7,3.6,3.6,7,3.6s5.1-.2,7.7-.7v7.7c-3.6.7-7.5,1.2-11.1,1.5"/>
          <path d="M2054.1,729.1v-38.7h8.7l.5,2.4c6-2.2,12.6-3.4,19.1-3.6h1.5v9.4h-3.6c-5.1,0-10.2.7-15.2,1.9v28.5h-10.9Z"/>
          <path d="M2123,712.9c-4.6-.5-8.9-.7-14-.7-8,0-10.6,1.7-10.6,5.3s2.2,5.1,8.2,5.1,10.9-1,16.2-2.2v-7.5h.2ZM2125.2,729.1v-2.2c-7.3,1.9-14.3,3.1-21.3,3.4-4.1.2-8.2-.7-11.6-2.9-2.9-2.2-4.6-5.8-4.4-9.4,0-4.6,2.4-8.7,6.5-10.4,4.1-1.9,9.4-2.2,14.5-2.2s9.4,0,14,.5v-.7c0-6-3.9-8-14.7-8s-9.4,0-14.3.7v-7.7c5.3-.5,11.6-.7,16.7-.7s13.8.5,18.1,3.6c4.4,3.1,5.3,7.5,5.3,13.3v22.7h-8.9Z"/>
          <path d="M2147.6,674.2h10.9v54.9h-10.9v-54.9Z"/>
        </g>
      </g>
    </g>
  </g>
</svg>