<?xml version="1.0" encoding="UTF-8"?>
<svg xmlns="http://www.w3.org/2000/svg" version="1.1" viewBox="0 0 2095 670">
  <defs>
    <style>
      .cls-1 {
        fill-rule: evenodd;
      }

      .cls-1, .cls-2 {
        fill: #0311fe;
      }
    </style>
  </defs>
  <!-- Generator: Adobe Illustrator 28.7.2, SVG Export Plug-In . SVG Version: 1.2.0 Build 154)  -->
  <g>
    <g id="Camada_1">
      <g>
        <path class="cls-2" d="M909.4,640.1h-167.8L846.6,31.8h167.8l-104.9,608.2h-.1Z"/>
        <path class="cls-2" d="M1517.6,46.7c-33.1-12.3-85.5-25.9-150.5-25.9-165.7,0-282.3,82.8-283,201.2-1.3,87.4,83.6,135.9,147,165,64.9,29.8,87,49.2,87,75.7-.6,40.8-52.4,59.6-100.7,59.6s-102.8-9.7-157.4-32.4l-22.1-9.7-23.5,136.5c39.3,16.8,111.8,31.8,187.1,32.4,176,0,290.6-81.5,292-207.7.6-69.2-44.2-122.3-140.8-165.6-58.6-27.8-94.6-46.5-94.6-75.1.7-25.9,30.4-52.4,96.6-52.4,54.5-1.3,94.6,11,124.9,23.3l15.2,6.4,22.9-131.4h0Z"/>
        <path class="cls-1" d="M1817.8,31.8h129.7l135.3,608.2h-155.4s-15.2-69.9-20-91.2h-215.3c-6.2,16.1-35.2,91.2-35.2,91.2h-176l249.2-557.7c17.3-39.5,47.7-50.5,87.7-50.5h0ZM1807.5,254.4s-53.2,135.2-67,170.1h139.4c-6.9-30.4-38.7-176-38.7-176l-11.7-52.4c-5,13.4-12.1,32.1-16.9,44.6-3.3,8.5-5.5,14.2-5.2,13.7h0Z"/>
        <path class="cls-1" d="M14.9,31.8h269.8c36.6,1.2,66.3,12.3,75.9,51.1l58.6,279.5h0l18,84.1L601.6,31.8h177.4l-263.6,607.5h-177.4L188.4,111C136.8,82.7,77.9,60,12.2,44.2l2.8-12.3h-.1Z"/>
      </g>
    </g>
  </g>
</svg>