<?xml version="1.0" encoding="UTF-8"?>
<svg xmlns="http://www.w3.org/2000/svg" version="1.1" viewBox="0 0 2095 960">
  <defs>
    <style>
      .cls-1, .cls-2 {
        fill: #0311fe;
      }

      .cls-1, .cls-3 {
        fill-rule: evenodd;
      }
    </style>
  </defs>
  <!-- Generator: Adobe Illustrator 28.7.2, SVG Export Plug-In . SVG Version: 1.2.0 Build 154)  -->
  <g>
    <g id="Camada_1">
      <g id="Camada_1-2" data-name="Camada_1">
        <g>
          <path class="cls-2" d="M914,618.7h-162.2L853.3,30.6h162.2l-101.4,588h0Z"/>
          <path class="cls-2" d="M1502,45c-32-11.9-82.7-25-145.5-25-160.2,0-272.9,80.1-273.6,194.5-1.3,84.5,80.8,131.4,142.1,159.5,62.7,28.8,84.1,47.6,84.1,73.2-.6,39.4-50.7,57.6-97.4,57.6s-99.4-9.4-152.2-31.3l-21.4-9.4-22.7,132c38,16.2,108.1,30.7,180.9,31.3,170.2,0,281-78.8,282.3-200.8.6-66.9-42.7-118.2-136.1-160.1-56.7-26.9-91.5-45-91.5-72.6.7-25,29.4-50.7,93.4-50.7,52.7-1.3,91.5,10.6,120.8,22.5l14.7,6.2,22.1-127h0Z"/>
          <path class="cls-1" d="M1792.3,30.6h125.4l130.8,588h-150.2s-14.7-67.6-19.3-88.2h-208.2c-6,15.6-34,88.2-34,88.2h-170.2l240.9-539.2c16.7-38.2,46.1-48.8,84.8-48.8h0ZM1782.3,245.8s-51.4,130.7-64.8,164.5h134.8c-6.7-29.4-37.4-170.2-37.4-170.2l-11.3-50.7c-4.8,13-11.7,31-16.3,43.1-3.2,8.2-5.3,13.7-5,13.2h0Z"/>
          <path class="cls-1" d="M49.1,30.6h260.9c35.4,1.2,64.1,11.9,73.4,49.4l56.7,270.2h0l17.4,81.3L616.4,30.6h171.5l-254.9,587.4h-171.5L216.9,107.1c-49.9-27.3-106.8-49.3-170.4-64.6l2.7-11.9h-.1Z"/>
          <path class="cls-3" d="M1233.6,939.4c-2.2.4-4.9.6-8.2.6-9.2,0-15.8-2.7-19.7-8.2s-5.9-13.5-5.9-24.1v-180.5h24.1v182.3c0,3.9.7,6.7,2.1,8.2,1.4,1.6,2.9,2.4,4.7,2.4h2.2c.7,0,1.7-.2,3.1-.6l3.2,18.2c-1.6.8-3.4,1.4-5.6,1.8h0ZM1161.3,915.6v20.9h-114.1v-192.9h111.1v20.6h-86.7v60.6h73.2v20.9h-73.2v70h89.7ZM1332.7,940c9.8,0,18.5-1.5,26.2-4.4,7.6-2.9,14.6-6.4,20.9-10.3l-8.5-15.9c-5.3,3.3-10.8,6-16.6,8.1-5.8,2.1-12.1,3.1-19,3.1-13.7,0-24.8-4.5-33.4-13.4-8.5-8.9-13.3-21-14.3-36.3h96.4c.4-1.8.6-3.9.7-6.3,0-2.4,0-4.9,0-7.5,0-10.2-1.3-19.4-3.8-27.6-2.5-8.2-6.2-15.3-11-21.2s-10.8-10.4-17.9-13.5c-7.2-3.1-15.2-4.7-24.3-4.7s-16.2,1.7-23.8,5.1c-7.6,3.4-14.5,8.4-20.4,14.8-6,6.5-10.8,14.4-14.4,23.7s-5.4,19.8-5.4,31.6,1.8,22.2,5.3,31.5c3.5,9.2,8.4,17,14.6,23.4s13.4,11.3,21.8,14.7c8.3,3.4,17.3,5.1,26.9,5.1h0ZM1287.7,853.6h76.4c0-14.5-3.1-25.5-9.3-33.1-6.2-7.5-14.8-11.3-26-11.3s-9.9,1-14.6,2.9c-4.6,2-8.8,4.9-12.5,8.7s-6.8,8.5-9.3,14c-2.4,5.5-4.1,11.8-4.9,18.8h.2ZM1477,940c8.6,0,16.9-1.6,24.7-4.9,7.8-3.2,15-7.7,21.5-13.4l-10.6-16.2c-4.5,3.9-9.6,7.3-15.1,10.1-5.6,2.8-11.7,4.3-18.4,4.3s-12.4-1.3-17.9-4c-5.5-2.6-10.1-6.4-14-11.2-3.8-4.8-6.8-10.5-9-17.2s-3.2-14.1-3.2-22.3,1.1-15.7,3.4-22.5,5.3-12.6,9.3-17.5,8.6-8.7,14.1-11.3,11.5-4,17.9-4,10.8,1.2,15.4,3.5c4.6,2.4,9,5.4,13.1,9.1l12.3-15.9c-5.1-4.5-11-8.4-17.6-11.8s-14.7-5-24.1-5-18,1.7-26.3,5-15.6,8.2-21.9,14.7-11.3,14.4-15,23.7-5.6,19.9-5.6,31.9,1.7,22.3,5.1,31.6,8.1,17.1,14.1,23.5,13.1,11.2,21.3,14.6c8.2,3.3,17.1,5,26.5,5v.2ZM1610.3,938.4c-4.6,1.1-9.2,1.6-13.7,1.6-7.6,0-14.1-1.2-19.3-3.5-5.2-2.4-9.4-5.6-12.6-9.7-3.2-4.1-5.5-9.1-6.9-15s-2.1-12.3-2.1-19.4v-79.1h-21.2v-18.2l22.3-1.5,2.9-40h20.3v40h38.5v19.7h-38.5v79.4c0,8.8,1.6,15.6,4.9,20.4s9,7.2,17.2,7.2,5.3-.4,8.2-1.2c2.9-.8,5.6-1.7,7.9-2.6l4.7,18.2c-3.9,1.4-8.2,2.6-12.8,3.7h.2ZM1675.2,936.5v-91.7c4.9-12.2,10.6-20.7,17.2-25.6,6.6-4.9,12.9-7.4,19-7.4s5.4.2,7.4.6,4.1,1,6.5,1.8l4.7-21.2c-4.5-2-9.6-2.9-15.3-2.9-8.2,0-15.8,2.6-22.8,7.9-7,5.3-12.9,12.4-17.8,21.5h-.9l-2.1-25.9h-20v142.9h24.1ZM1830.8,935c-7.9,3.3-16.3,5-25.1,5s-17.2-1.7-25.1-5-14.9-8.2-21-14.6-10.9-14.2-14.6-23.5c-3.6-9.3-5.4-19.8-5.4-31.6s1.8-22.6,5.4-31.9c3.6-9.3,8.5-17.2,14.6-23.7s13.1-11.4,21-14.7,16.3-5,25.1-5,17.2,1.7,25.1,5,14.9,8.2,21,14.7,10.9,14.4,14.6,23.7c3.6,9.3,5.4,19.9,5.4,31.9s-1.8,22.3-5.4,31.6-8.5,17.1-14.6,23.5-13.1,11.2-21,14.6ZM1805.7,920c-6.1,0-11.7-1.3-16.8-4-5.1-2.6-9.5-6.4-13.1-11.2s-6.4-10.5-8.4-17.2-2.9-14.1-2.9-22.3,1-15.7,2.9-22.5c2-6.8,4.8-12.6,8.4-17.5s8-8.7,13.1-11.3,10.7-4,16.8-4,11.7,1.3,16.8,4c5.1,2.6,9.5,6.4,13.1,11.3s6.4,10.7,8.4,17.5,2.9,14.3,2.9,22.5-1,15.7-2.9,22.3c-2,6.7-4.8,12.4-8.4,17.2s-8,8.5-13.1,11.2c-5.1,2.6-10.7,4-16.8,4ZM1933.6,833v103.5h-24.1v-142.9h20l2.1,20.6h.9c6.9-6.9,14.1-12.6,21.6-17.2,7.5-4.6,16.3-6.9,26.3-6.9,15.1,0,26.1,4.7,33.1,14.1,7,9.4,10.4,23.3,10.4,41.7v90.6h-24.1v-87.3c0-13.5-2.2-23.3-6.5-29.3s-11.2-9-20.6-9-14,1.9-19.7,5.6c-5.7,3.7-12.2,9.2-19.4,16.5h0Z"/>
        </g>
      </g>
    </g>
  </g>
</svg>