<?xml version="1.0" encoding="UTF-8"?>
<svg id="Camada_1" xmlns="http://www.w3.org/2000/svg" viewBox="0 0 1500 1500">
  <defs>
    <style>
      .cls-1 {
        fill: #0311fe;
      }
    </style>
  </defs>
  <path class="cls-1" d="M860.36,672.9c-14.16-8.44-19.63-26.24-12.64-41.18l165.25-353.23-556.29,451.76,236.25,102.04c15.57,7.04,22,25.73,14.08,40.86l-200.44,377.14,554.7-466.52-200.9-110.89Z"/>
  <path d="M1445.36,244.24c1.04-4.23-.11-7.94-2.05-10.97-3.67-5.74-10.28-8.93-17.1-8.93h-352.26c-39.05,78.25-157.63,333.39-190.06,403.29-4.69,10.1-.85,22.09,8.83,27.61l222.25,126.79s-460.22,383.48-593.22,493.65c173.33-6.42,739.87.62,873.72-741.13,32.57-180.47,38.27-215.37,49.9-290.3Z"/>
  <path d="M668.07,850.92c-21.03-8.79-199.15-83.68-268.32-112.75,166.3-133.85,637.29-513.84,637.29-513.84h-364.44c-74.99,0-163.03,77.02-195.33,144.1,0,0-413.82,857.46-416.44,862.89-16.2,33.58.57,43.4,17.47,44.35h302.61c47.03,0,79.86,0,79.86,0l213.4-408.2c2.96-6.1.05-13.98-6.09-16.54Z"/>
</svg>