<?xml version="1.0" encoding="UTF-8"?>
<svg xmlns="http://www.w3.org/2000/svg" version="1.1" viewBox="0 0 4000 1680">
  <defs>
    <style>
      .cls-1 {
        fill: none;
        stroke: #fff;
        stroke-linecap: round;
        stroke-linejoin: round;
        stroke-width: 8px;
      }

      .cls-2 {
        fill: #fff;
        opacity: .7;
      }
    </style>
  </defs>
  <!-- Generator: Adobe Illustrator 28.7.1, SVG Export Plug-In . SVG Version: 1.2.0 Build 142)  -->
  <g>
    <g id="Camada_1">
      <g>
        <path class="cls-2" d="M775.3,498.98c-20.08-6.74-51.39-14.58-94.18-7.07-72.33,12.7-106.44,72.58-97.17,125.35,7.34,41.82,40.72,73.42,94.21,64.03,46.35-8.14,80.33-26.94,101.41-41.42l1.51,98.27c-25.23,17.77-67.38,34.93-111.69,42.71-98.81,17.35-175.32-41.57-191.23-132.18-20.11-114.5,64.03-230.38,190.86-252.66,46.86-8.23,79.26-3.14,104.96,5.69l1.33,97.27Z"/>
        <path class="cls-2" d="M1077.07,701.56l-1.9-142.34-121.74,21.38,1.9,142.34-106.46,18.7-4.89-368.65,106.46-18.7,1.95,136.68,121.74-21.38-1.95-136.68,106.96-18.79,4.89,368.65-106.96,18.79Z"/>
        <path class="cls-2" d="M1412.57,268l5.09-.89,191.17,341.06-110.53,19.41-23.59-44.61-111.55,19.59-21.75,52.57-110.53,19.41,181.68-406.54ZM1444.99,518.39c-9.78-19.84-23.7-51.26-27-64.03-1.02.18-20.19,58.46-25.98,73.33l52.97-9.3Z"/>
        <path class="cls-2" d="M1783.29,429.72l-28.3-17.61,2.03,170.03-101.36,17.8-4.74-373.8,2.55-.45,184.8,119.45,180.41-183.59,3.06-.54,4.74,373.8-101.87,17.89-2.03-170.03-27.73,27.45c-18.26,18.6-36.52,37.21-54.87,55.31-19.34-11.48-37.76-23.65-56.68-35.72Z"/>
        <path class="cls-2" d="M2254.5,120.13l5.09-.89,191.17,341.06-110.53,19.41-23.59-44.61-111.55,19.59-21.75,52.57-110.53,19.41,181.68-406.54ZM2286.93,370.53c-9.78-19.84-23.7-51.26-27-64.03-1.02.18-20.19,58.46-25.98,73.33l52.97-9.3Z"/>
        <path class="cls-2" d="M2776.14,25.95c103.91-18.25,181.19,42.08,197.01,132.19,20.2,115-63.69,229.3-191.54,251.75-103.4,18.16-180.42-40.68-196.33-131.28-20.11-114.5,64.03-230.38,190.86-252.66ZM2780.19,312.12c60.1-10.56,95.92-69.71,86.57-122.98-7.26-41.32-41.32-73.83-89.2-65.42-59.08,10.38-95.83,70.2-86.57,122.98,7.43,42.32,41.32,73.83,89.2,65.42Z"/>
      </g>
      <g>
        <path class="cls-1" d="M47.66,1619.99l-11.81-545.38,193.71-36.42c178.34-33.53,297.27,44.5,321.99,175.99,31.77,168.95-90.33,328.05-310.18,369.38l-193.71,36.42ZM199.29,1177.74l6.24,278.71,30.75-5.78c119.15-22.4,168.59-110.79,154.08-187.92-11.6-61.71-65.01-108.71-160.33-90.78l-30.75,5.78Z"/>
        <path class="cls-1" d="M639.54,1508.71l-11.81-545.38,370.51-69.66,2.78,133.33-209.85,39.46,1.73,72.69,179.88-33.82,2.8,124.96-179.88,33.82,1.71,81.06,221.38-41.62,2.78,133.33-382.04,71.83Z"/>
        <path class="cls-1" d="M1099.98,1422.14l-11.81-545.37,160.66-30.21,9.03,412.04,189.1-35.55,2.78,133.33-349.76,65.76Z"/>
        <path class="cls-1" d="M1751.78,740.58c156.81-29.48,274.33,57.94,299.33,190.9,31.9,169.69-93.5,340.81-286.45,377.09-156.05,29.34-273.14-55.88-298.28-189.58-31.77-168.95,94-342.43,285.4-378.41ZM1761.34,1163.93c90.71-17.05,144.13-105.43,129.35-184.03-11.46-60.97-63.33-108.26-135.59-94.67-89.17,16.76-143.99,106.17-129.35,184.04,11.74,62.44,63.33,108.26,135.59,94.67Z"/>
        <path class="cls-1" d="M2291.24,1027.8l4.03,169.61-156.81,29.48-11.81-545.38,204.47-38.44c124.53-23.41,218.12,12.99,237.87,118.03,17.26,91.82-23.54,162.62-99.86,209.67l15.66,28.24c16.07,30.44,37.91,40.79,70.96,34.57,5.38-1.01,10.62-2.76,16.64-4.65l2.74,120.41c-10.98,5.11-27.97,12.1-56.41,17.45-62.26,11.71-107.92-2.53-145.28-70.03l-44.54-76.05-37.67,7.08ZM2286.25,785.36l2.82,116.59,56.12-10.55c39.2-7.37,72.29-30.33,62.9-80.28-6.49-34.53-34.21-42.24-65.72-36.32l-56.11,10.55Z"/>
        <path class="cls-1" d="M2653.48,1130.05l-11.81-545.37,160.66-30.21,11.81,545.38-160.66,30.21Z"/>
        <path class="cls-1" d="M3135.31,484.26l7.69-1.45,293,500.11-166.81,31.36-36.18-65.45-168.34,31.65-32.23,78.31-166.81,31.36,269.69-605.91ZM3187.32,853.99c-15.02-29.12-36.44-75.29-41.57-94.1-1.54.29-29.81,86.98-38.38,109.13l79.94-15.03Z"/>
        <path class="cls-1" d="M3962.38,891.56l-269.77-160.71c-17.86-10.33-35.72-20.66-53.72-31.73l5.41,244.64-156.81,29.48-11.65-553.01,7.69-1.45,268.1,160.26c17.86,10.33,36,22.13,53.86,32.46l-5.41-244.64,157.58-29.63,11.65,553.01-6.92,1.3Z"/>
      </g>
    </g>
  </g>
</svg>