<?xml version="1.0" encoding="UTF-8"?>
<svg xmlns="http://www.w3.org/2000/svg" version="1.1" viewBox="0 0 800 800">
  <defs>
    <style>
      .cls-1 {
        fill: #0c3086;
      }
    </style>
  </defs>
  <!-- Generator: Adobe Illustrator 28.7.1, SVG Export Plug-In . SVG Version: 1.2.0 Build 142)  -->
  <g>
    <g id="Camada_1">
      <g>
        <path class="cls-1" d="M1934.65,778.68h-182.97c-84.62,0-153.46,68.84-153.46,153.46v161.24c0,84.63,68.84,153.47,153.46,153.47h182.97c84.61,0,153.46-68.84,153.46-153.47v-161.24c0-84.61-68.84-153.46-153.46-153.46ZM2043.02,932.14v161.24c0,59.76-48.61,108.37-108.37,108.37h-182.97c-59.75,0-108.37-48.61-108.37-108.37v-161.24c0-59.75,48.61-108.37,108.37-108.37h182.97c59.75,0,108.37,48.61,108.37,108.37Z"/>
        <path class="cls-1" d="M1843.16,878.58c-73.99,0-134.19,60.19-134.19,134.19s60.19,134.19,134.19,134.19,134.19-60.2,134.19-134.19-60.19-134.19-134.19-134.19ZM1938.44,1012.76c0,52.54-42.74,95.28-95.28,95.28s-95.28-42.74-95.28-95.28,42.74-95.28,95.28-95.28,95.28,42.74,95.28,95.28Z"/>
        <path class="cls-1" d="M1972.26,855.4c-16.71,0-30.3,13.59-30.3,30.3s13.59,30.28,30.3,30.28,30.28-13.59,30.28-30.28-13.59-30.3-30.28-30.3Z"/>
      </g>
      <g>
        <path class="cls-1" d="M366.42,316.18v41.46h-48.55v56.23h48.55v144.27h58.07v-144.27h48.43l7.25-56.23h-55.68v-35.9c0-16.28,4.52-27.37,27.86-27.37h29.77v-50.31c-5.15-.68-22.82-2.21-43.39-2.21-42.92,0-72.31,26.2-72.31,74.32Z"/>
        <path class="cls-1" d="M491.5,165.92h-182.98c-84.62,0-153.46,68.84-153.46,153.46v161.24c0,84.63,68.84,153.47,153.46,153.47h182.98c84.61,0,153.45-68.84,153.45-153.47v-161.24c0-84.61-68.84-153.46-153.45-153.46ZM599.86,319.37v161.24c0,59.76-48.61,108.37-108.36,108.37h-182.98c-59.75,0-108.37-48.61-108.37-108.37v-161.24c0-59.75,48.61-108.37,108.37-108.37h182.98c59.75,0,108.36,48.61,108.36,108.37Z"/>
      </g>
    </g>
  </g>
</svg>