<svg width="490" height="470" viewBox="0 0 490 470" fill="none" xmlns="http://www.w3.org/2000/svg">
<path d="M336.49 0.919983H153.52C68.9 0.919983 0.0600586 69.76 0.0600586 154.38V315.62C0.0600586 400.25 68.9 469.09 153.52 469.09H336.49C421.1 469.09 489.95 400.25 489.95 315.62V154.38C489.95 69.77 421.11 0.919983 336.49 0.919983ZM444.86 154.37V315.61C444.86 375.37 396.25 423.98 336.49 423.98H153.52C93.7701 423.98 45.1501 375.37 45.1501 315.61V154.37C45.1501 94.62 93.7601 46 153.52 46H336.49C396.24 46 444.86 94.61 444.86 154.37Z" fill="#0E11FE"/>
<path d="M245 100.81C171.01 100.81 110.81 161 110.81 235C110.81 309 171 369.19 245 369.19C319 369.19 379.19 308.99 379.19 235C379.19 161.01 319 100.81 245 100.81ZM340.28 235C340.28 287.54 297.54 330.28 245 330.28C192.46 330.28 149.72 287.54 149.72 235C149.72 182.46 192.46 139.72 245 139.72C297.54 139.72 340.28 182.46 340.28 235Z" fill="#0E11FE"/>
<path d="M374.1 77.64C357.39 77.64 343.8 91.23 343.8 107.94C343.8 124.65 357.39 138.22 374.1 138.22C390.81 138.22 404.38 124.63 404.38 107.94C404.38 91.25 390.79 77.64 374.1 77.64Z" fill="#0E11FE"/>
</svg>
