<?xml version="1.0" encoding="UTF-8"?>
<svg xmlns="http://www.w3.org/2000/svg" version="1.1" viewBox="0 0 800 800">
  <defs>
    <style>
      .cls-1 {
        fill: #0c3086;
      }
    </style>
  </defs>
  <!-- Generator: Adobe Illustrator 28.7.1, SVG Export Plug-In . SVG Version: 1.2.0 Build 142)  -->
  <g>
    <g id="Camada_1">
      <g>
        <path class="cls-1" d="M1934.65,778.68h-182.97c-84.62,0-153.46,68.84-153.46,153.46v161.24c0,84.63,68.84,153.47,153.46,153.47h182.97c84.61,0,153.46-68.84,153.46-153.47v-161.24c0-84.61-68.84-153.46-153.46-153.46ZM2043.02,932.14v161.24c0,59.76-48.61,108.37-108.37,108.37h-182.97c-59.75,0-108.37-48.61-108.37-108.37v-161.24c0-59.75,48.61-108.37,108.37-108.37h182.97c59.75,0,108.37,48.61,108.37,108.37Z"/>
        <path class="cls-1" d="M1843.16,878.58c-73.99,0-134.19,60.19-134.19,134.19s60.19,134.19,134.19,134.19,134.19-60.2,134.19-134.19-60.19-134.19-134.19-134.19ZM1938.44,1012.76c0,52.54-42.74,95.28-95.28,95.28s-95.28-42.74-95.28-95.28,42.74-95.28,95.28-95.28,95.28,42.74,95.28,95.28Z"/>
        <path class="cls-1" d="M1972.26,855.4c-16.71,0-30.3,13.59-30.3,30.3s13.59,30.28,30.3,30.28,30.28-13.59,30.28-30.28-13.59-30.3-30.28-30.3Z"/>
      </g>
      <g>
        <path class="cls-1" d="M1854.68,29.88v41.46h-48.55v56.23h48.55v144.27h58.07V127.58h48.43l7.25-56.23h-55.68v-35.9c0-16.28,4.52-27.37,27.86-27.37h29.77v-50.31c-5.15-.68-22.82-2.21-43.39-2.21-42.92,0-72.31,26.2-72.31,74.32Z"/>
        <path class="cls-1" d="M1979.75-120.38h-182.98c-84.62,0-153.46,68.84-153.46,153.46v161.24c0,84.63,68.84,153.47,153.46,153.47h182.98c84.61,0,153.45-68.84,153.45-153.47V33.08c0-84.61-68.84-153.46-153.45-153.46ZM2088.11,33.08v161.24c0,59.76-48.61,108.37-108.36,108.37h-182.98c-59.75,0-108.37-48.61-108.37-108.37V33.08c0-59.75,48.61-108.37,108.37-108.37h182.98c59.75,0,108.36,48.61,108.36,108.37Z"/>
      </g>
      <g>
        <path class="cls-1" d="M400,154.77c-134.71,0-244.3,109.25-244.3,243.52,0,50.76,15.58,99.33,45.09,140.65l-20.69,106.3,100.75-34.6c36.44,20.39,77.57,31.15,119.15,31.15,134.71,0,244.31-109.23,244.31-243.5s-109.6-243.52-244.31-243.52ZM252.98,526.73l-6.86-8.73c-27.15-34.64-41.51-76.03-41.51-119.71,0-107.4,87.65-194.77,195.39-194.77s195.4,87.37,195.4,194.77-87.65,194.77-195.4,194.77c-36.48,0-72.24-10.31-103.44-29.79l-9.9-6.18-42.42,14.57,8.74-44.92Z"/>
        <path class="cls-1" d="M468.73,522.38c28.18,0,46.75-18.63,54.28-26.2,8.28-8.23,10.86-28.84,10.86-35.42,0-9.38-5.79-14-8.52-14.96-1.67-.83-40.93-20.33-50.31-24.6-11.31-5.15-20.17,1.02-23.21,4.91-6.73,8.39-18.21,22.5-20.37,24.65-.4.41-1.39.61-2.13.63-5.61-2.18-35.22-14.18-50.92-29.85-14.91-14.84-23.53-27.07-29.25-35.17l-3.5-4.91c-2.46-3.33-.66-6.34-.67-6.47.44-.45,11-10.99,15.97-18.68,5.18-7.99,3.82-16.82,2.21-20.81-.73-1.77-17.81-43.43-21.86-51.02-4.66-8.75-17.03-11.96-36.75-9.55-13.8,1.68-27.32,23.77-30.22,28.8-9.8,14.49-10.66,30.19-3.41,61.96,7.57,33.24,38.81,67.91,71.43,100.43,34.44,34.34,97.85,56.24,126.38,56.24Z"/>
      </g>
    </g>
  </g>
</svg>